<svg xmlns="http://www.w3.org/2000/svg" width="1024" height="1024" viewBox="0 0 1024 1024">
<g>
<path d="M 709.00 891.04 C709.00,892.55 708.32,893.00 706.00,893.00 C703.78,893.00 703.00,892.53 703.00,891.20 C703.00,888.12 701.02,887.10 696.11,887.63 C693.58,887.90 688.67,887.72 685.22,887.23 C680.54,886.55 678.50,886.64 677.22,887.59 C675.65,888.74 675.74,888.94 678.25,889.90 C682.37,891.47 681.57,892.35 676.75,891.54 C669.79,890.38 667.83,890.14 660.50,889.55 C654.22,889.05 646.03,888.19 640.50,887.47 C639.40,887.33 635.03,886.49 630.79,885.60 C626.55,884.72 621.69,884.00 619.98,884.00 C618.27,884.00 615.89,883.47 614.68,882.81 C613.48,882.16 608.98,881.54 604.67,881.44 C600.37,881.33 596.34,880.74 595.72,880.12 C594.89,879.29 595.04,879.00 596.30,879.00 C597.23,879.00 598.00,878.55 598.00,878.00 C598.00,877.45 595.75,877.00 593.00,877.00 C589.22,877.00 588.00,877.37 588.00,878.50 C588.00,880.15 584.77,880.31 575.00,879.15 C571.09,878.69 569.50,878.07 569.50,877.01 C569.50,875.08 565.51,874.27 555.25,874.12 C548.57,874.02 546.66,874.34 545.22,875.78 C543.11,877.89 536.31,877.68 531.36,875.35 C528.89,874.19 525.69,874.00 516.36,874.46 C509.84,874.79 495.85,875.28 485.28,875.57 C466.83,876.06 465.98,876.00 464.30,874.04 C462.93,872.44 461.36,872.00 456.97,872.00 C453.60,872.00 450.61,872.58 449.44,873.47 C447.11,875.23 438.87,875.47 437.23,873.83 C436.35,872.95 434.03,872.97 427.50,873.94 C420.70,874.95 418.33,874.96 415.97,873.99 C413.62,873.02 412.38,873.01 410.04,873.98 C408.12,874.78 404.69,875.00 400.29,874.61 C396.55,874.29 387.88,873.76 381.00,873.45 C347.39,871.93 341.19,871.30 338.40,869.10 C336.76,867.81 334.27,867.00 331.97,867.00 C329.55,867.00 328.01,866.47 327.64,865.50 C327.23,864.44 325.59,864.00 322.08,864.00 C319.34,864.00 315.95,863.48 314.56,862.84 C312.51,861.91 311.29,862.02 308.24,863.39 C303.89,865.35 297.44,865.24 295.72,863.17 C294.73,861.96 295.17,861.85 298.64,862.44 C301.85,862.98 302.86,862.80 303.32,861.60 C303.65,860.75 303.45,859.78 302.89,859.43 C301.34,858.48 294.96,859.94 294.41,861.37 C294.06,862.29 292.64,862.43 289.21,861.90 C275.43,859.76 272.03,859.08 270.17,858.09 C269.05,857.49 267.08,857.00 265.79,857.00 C264.50,857.00 262.54,856.37 261.43,855.59 C260.33,854.82 256.57,853.62 253.08,852.94 C248.40,852.01 246.60,851.20 246.25,849.84 C245.98,848.83 245.26,847.95 244.63,847.89 C244.01,847.83 241.93,847.66 240.00,847.52 C233.99,847.09 229.02,845.29 226.32,842.60 C224.86,841.13 222.59,840.00 221.11,839.99 C216.88,839.99 211.66,838.20 208.01,835.51 C206.14,834.13 203.69,832.98 202.56,832.96 C201.43,832.93 198.70,831.82 196.50,830.48 C194.30,829.14 190.81,827.13 188.75,826.00 C184.88,823.90 184.07,822.51 186.25,821.71 C187.24,821.34 187.24,820.97 186.23,819.90 C185.19,818.80 184.57,818.79 182.93,819.81 C180.75,821.17 179.24,820.64 177.19,817.81 C176.47,816.82 175.27,816.00 174.51,816.00 C172.97,816.00 170.00,813.34 170.00,811.95 C170.00,811.46 171.35,811.32 173.00,811.65 C175.36,812.12 176.00,811.90 176.00,810.60 C176.00,808.74 171.42,806.63 169.22,807.47 C168.44,807.77 168.05,808.69 168.36,809.51 C169.27,811.87 166.09,811.30 162.33,808.44 C160.49,807.03 158.33,804.33 157.54,802.43 C156.71,800.45 155.01,798.58 153.55,798.02 C152.15,797.49 151.00,796.59 151.00,796.02 C151.00,795.46 149.43,795.00 147.50,795.00 C144.67,795.00 144.00,794.62 144.00,793.00 C144.00,791.90 143.54,791.00 142.97,791.00 C142.40,791.00 140.36,789.42 138.43,787.50 C136.51,785.58 134.50,784.00 133.97,784.00 C133.43,784.00 133.00,782.60 133.00,780.88 C133.00,778.25 132.69,777.85 130.99,778.29 C129.50,778.68 128.07,777.70 125.44,774.49 C122.49,770.89 122.08,769.85 123.02,768.33 C124.34,766.19 123.09,756.74 121.50,756.84 C120.95,756.87 120.22,758.29 119.87,760.00 C119.52,761.71 118.99,763.34 118.69,763.64 C118.07,764.27 111.27,756.98 111.11,755.50 C111.00,754.46 111.39,754.33 115.50,754.12 C118.74,753.96 118.70,752.28 115.43,750.79 C113.52,749.92 112.10,749.90 109.93,750.72 C107.27,751.73 106.83,751.57 104.97,748.96 C103.85,747.38 102.04,744.09 100.96,741.65 C99.88,739.21 98.33,736.96 97.50,736.64 C96.64,736.31 96.00,734.82 96.00,733.14 C96.00,731.53 95.40,729.98 94.66,729.70 C93.80,729.37 93.48,728.10 93.77,726.14 C94.15,723.52 93.85,723.00 91.61,722.44 C90.17,722.08 89.00,721.23 89.00,720.55 C89.00,719.87 88.05,718.45 86.89,717.40 C85.73,716.36 83.42,712.81 81.76,709.52 C79.13,704.31 78.88,703.15 79.86,700.57 C81.20,697.01 79.57,693.87 75.33,691.81 C73.56,690.96 72.31,689.30 71.73,687.06 C71.24,685.16 70.26,682.79 69.56,681.78 C68.62,680.44 68.51,678.67 69.15,675.23 C70.22,669.48 69.67,667.78 66.88,668.19 C64.73,668.50 64.11,667.21 61.57,657.00 C60.97,654.62 60.99,654.61 61.94,656.75 C62.49,657.99 63.59,659.00 64.40,659.00 C66.33,659.00 68.83,648.43 67.27,646.87 C65.61,645.21 62.25,646.80 61.06,649.80 C60.16,652.06 60.08,651.63 60.54,647.17 C61.02,642.55 60.84,641.77 59.24,641.35 C57.16,640.81 54.80,632.14 54.52,624.03 C54.43,621.47 54.08,618.94 53.74,618.39 C53.41,617.85 52.81,612.35 52.42,606.17 C52.03,599.99 51.33,594.70 50.86,594.41 C50.39,594.12 50.00,592.53 50.00,590.88 C50.00,587.09 51.53,587.92 52.39,592.18 C52.95,594.99 53.21,595.22 54.48,593.95 C55.70,592.72 55.76,590.82 54.82,581.50 C54.21,575.45 53.75,562.21 53.81,552.09 C53.86,541.32 53.48,532.89 52.88,531.77 C52.16,530.43 52.21,529.45 53.05,528.44 C53.71,527.65 53.90,527.00 53.47,527.00 C53.04,527.00 53.45,526.16 54.38,525.13 C55.65,523.73 55.91,522.28 55.43,519.27 C54.68,514.61 57.48,498.08 60.72,488.00 C61.07,486.89 61.44,487.11 62.10,488.82 C62.66,490.30 63.63,491.02 64.75,490.79 C66.19,490.49 66.46,489.49 66.27,485.09 C66.15,482.16 65.56,479.17 64.97,478.46 C63.70,476.93 64.54,467.72 66.23,464.60 C66.86,463.45 67.88,460.25 68.51,457.50 C69.38,453.63 70.12,452.43 71.75,452.19 C75.02,451.71 76.63,449.25 75.19,446.93 C73.45,444.15 73.72,441.85 75.75,442.05 C76.71,442.15 78.06,442.18 78.75,442.12 C80.54,441.95 80.29,436.94 78.43,435.57 C77.10,434.60 77.05,433.99 78.09,431.71 C78.77,430.22 79.67,429.00 80.09,429.00 C80.51,429.00 81.55,428.31 82.39,427.47 C83.57,426.29 83.68,425.40 82.89,423.67 C82.04,421.79 82.71,419.63 86.80,411.01 C90.93,402.33 91.86,400.99 92.46,402.87 C93.24,405.35 94.79,405.28 96.42,402.69 C97.19,401.48 97.15,400.47 96.30,399.10 C95.02,397.05 96.30,390.00 97.96,390.00 C99.83,390.00 109.00,377.00 109.00,374.35 C109.00,372.87 109.71,370.87 110.58,369.91 C111.45,368.95 112.28,367.08 112.42,365.75 C112.57,364.42 114.47,360.90 116.65,357.92 C118.82,354.94 121.69,350.70 123.02,348.50 C125.47,344.44 128.10,341.24 133.50,335.74 C135.15,334.07 136.41,332.37 136.29,331.98 C136.18,331.59 137.15,330.27 138.44,329.06 C140.43,327.19 141.09,327.04 142.76,328.08 C145.12,329.56 147.83,328.72 148.61,326.27 C148.93,325.30 149.64,323.54 150.20,322.37 C150.75,321.20 150.91,318.86 150.54,317.18 C149.96,314.52 150.38,313.62 153.76,310.31 C155.90,308.21 158.43,305.23 159.39,303.69 C160.53,301.84 161.88,300.93 163.31,301.05 C164.52,301.14 166.06,301.17 166.75,301.11 C168.34,300.97 168.37,297.77 166.80,296.20 C165.87,295.27 166.21,295.00 168.32,295.00 C170.54,295.00 171.16,294.45 171.64,292.05 C172.15,289.49 172.58,289.17 174.87,289.62 C176.90,290.02 178.17,289.44 180.44,287.07 C182.05,285.38 183.95,284.00 184.65,284.00 C187.14,284.00 188.20,280.23 186.46,277.58 C184.98,275.32 184.99,275.08 186.68,274.20 C187.68,273.68 189.51,273.42 190.75,273.62 C192.66,273.93 193.00,273.54 193.00,270.99 C193.00,267.72 193.26,267.54 195.93,268.96 C197.17,269.63 198.29,269.51 199.57,268.57 C201.19,267.39 201.26,266.87 200.16,264.45 C199.15,262.23 199.15,261.53 200.15,260.91 C200.84,260.48 201.80,260.38 202.28,260.67 C202.76,260.97 203.98,260.33 204.99,259.24 C206.39,257.74 207.86,257.34 211.16,257.58 C216.09,257.94 220.27,255.86 219.36,253.50 C218.63,251.60 216.68,251.60 213.05,253.48 C210.64,254.72 210.11,254.73 209.66,253.57 C209.10,252.09 211.90,249.00 213.80,249.00 C214.43,249.00 216.64,247.39 218.72,245.43 C220.80,243.47 225.99,239.08 230.27,235.68 C234.54,232.28 240.16,227.79 242.77,225.70 C249.39,220.38 252.98,218.62 256.75,218.86 C259.55,219.03 260.00,218.74 260.00,216.72 C260.00,214.82 261.19,213.81 266.25,211.43 C269.69,209.82 273.09,207.94 273.82,207.25 C274.55,206.56 276.35,205.74 277.82,205.42 C279.29,205.10 281.05,204.67 281.72,204.46 C282.39,204.26 283.21,204.53 283.54,205.06 C284.52,206.66 286.21,204.93 285.68,202.87 C284.84,199.67 292.76,196.90 295.36,199.50 C296.97,201.11 299.00,201.50 299.00,200.20 C299.00,199.76 298.51,198.91 297.92,198.32 C295.92,196.32 302.80,192.24 309.00,191.75 C312.02,191.51 316.98,190.34 320.00,189.14 C326.89,186.43 332.38,186.13 334.82,188.34 C336.84,190.17 341.53,190.57 342.50,189.00 C342.84,188.45 345.30,188.00 347.98,188.00 C354.04,188.00 356.00,187.27 356.00,185.02 C356.00,183.60 357.13,183.15 361.75,182.71 C364.91,182.41 370.65,182.24 374.50,182.33 C381.21,182.49 381.49,182.60 381.17,184.82 C380.94,186.49 381.44,187.30 382.92,187.69 C384.07,187.99 385.00,189.03 385.00,190.00 C385.00,193.00 393.75,194.21 395.99,191.52 C396.96,190.35 399.53,190.08 408.16,190.24 C416.32,190.39 419.32,190.10 419.92,189.12 C420.77,187.75 426.57,188.66 443.00,192.72 C451.10,194.73 452.30,195.54 450.77,198.00 C449.89,199.41 449.93,200.21 450.93,201.42 C452.81,203.68 454.71,203.37 456.59,200.50 C458.46,197.64 460.08,197.40 463.85,199.42 C466.84,201.02 473.51,203.30 482.79,205.89 C489.13,207.66 492.93,210.32 493.37,213.30 C493.67,215.37 496.95,219.00 498.53,219.00 C499.20,219.00 500.31,218.34 500.98,217.53 C502.05,216.23 502.55,216.23 505.13,217.57 C506.74,218.40 508.49,218.82 509.01,218.50 C509.53,218.17 511.78,218.40 514.02,219.01 C516.88,219.78 518.37,220.84 519.03,222.59 C519.83,224.67 520.30,224.91 521.92,224.04 C523.94,222.96 527.00,223.59 527.00,225.08 C527.00,225.55 525.65,226.94 524.00,228.16 C522.35,229.38 521.00,230.75 521.00,231.20 C521.00,232.47 532.37,230.92 533.53,229.49 C534.34,228.49 535.89,228.84 540.90,231.11 C546.41,233.61 547.08,234.20 545.96,235.55 C544.89,236.83 544.97,237.39 546.40,238.80 C548.02,240.40 548.20,240.40 549.42,238.75 C550.83,236.85 554.51,236.39 555.50,238.00 C555.84,238.55 555.40,239.00 554.53,239.00 C553.65,239.00 552.68,239.66 552.38,240.46 C552.07,241.27 550.95,242.20 549.89,242.53 C548.84,242.87 548.18,243.48 548.43,243.88 C548.90,244.65 559.87,243.63 563.76,242.45 C565.70,241.86 565.98,242.10 565.76,244.13 C565.52,246.28 565.84,246.47 569.17,246.22 C572.84,245.93 574.42,247.05 574.47,249.95 C574.49,250.92 575.65,251.41 578.00,251.45 C581.20,251.50 581.47,251.73 581.19,254.19 C580.90,256.60 581.33,257.02 585.19,258.10 C587.56,258.77 591.10,259.38 593.06,259.46 C595.02,259.54 597.95,260.50 599.56,261.59 C601.18,262.69 605.04,264.83 608.15,266.36 C611.60,268.05 614.01,269.94 614.34,271.20 C614.75,272.76 615.43,273.12 617.09,272.69 C619.48,272.06 622.22,273.24 631.43,278.88 C635.47,281.35 636.80,282.61 635.60,282.84 C634.64,283.02 633.00,282.41 631.96,281.47 C629.67,279.39 627.00,280.19 627.00,282.96 C627.00,285.89 632.51,287.82 640.84,287.82 C647.36,287.82 648.36,288.13 654.95,292.16 C658.86,294.55 664.38,297.74 667.22,299.25 C670.07,300.76 673.77,303.23 675.45,304.75 C679.74,308.62 682.51,310.00 685.99,310.00 C687.64,310.00 689.00,310.42 689.00,310.93 C689.00,312.04 695.20,315.85 703.75,319.99 C708.31,322.20 710.00,323.56 710.00,325.01 C710.00,326.40 710.67,327.00 712.22,327.00 C716.21,327.00 722.87,330.09 722.73,331.88 C722.53,334.55 727.12,340.00 729.57,340.00 C730.77,340.00 732.31,340.67 732.99,341.49 C733.89,342.57 735.30,342.82 738.10,342.37 C741.18,341.88 742.10,342.09 742.62,343.44 C742.97,344.37 746.20,347.35 749.78,350.07 C754.97,354.00 757.08,355.00 760.15,355.00 C763.98,355.00 764.43,355.50 764.05,359.25 C763.93,360.41 764.57,361.00 765.94,361.00 C767.07,361.00 768.00,360.55 768.00,360.00 C768.00,359.45 768.81,359.00 769.81,359.00 C771.92,359.00 776.22,361.92 774.18,361.97 C773.39,361.99 772.99,362.90 773.18,364.25 C773.45,366.16 774.14,366.52 777.73,366.61 C780.05,366.67 782.53,367.17 783.23,367.72 C783.93,368.27 785.74,369.02 787.25,369.38 C789.08,369.82 790.00,370.69 790.00,371.98 C790.00,373.05 790.93,374.79 792.07,375.85 C793.89,377.54 793.98,378.06 792.82,379.92 C790.20,384.16 796.09,384.44 801.08,380.31 C803.23,378.53 805.35,378.64 804.64,380.50 C804.32,381.33 804.61,382.05 805.28,382.12 C805.95,382.18 806.95,382.34 807.50,382.46 C808.05,382.59 809.01,382.76 809.62,382.85 C810.24,382.93 811.02,384.34 811.34,385.97 C811.75,387.98 812.69,389.14 814.26,389.53 C815.53,389.85 817.01,391.09 817.54,392.30 C818.77,395.09 821.63,395.64 823.97,393.53 C824.98,392.62 825.95,392.33 826.15,392.88 C826.58,394.11 832.46,398.45 836.50,400.52 C843.96,404.34 851.53,409.85 853.02,412.55 C853.98,414.29 855.65,415.64 857.08,415.85 C860.19,416.29 862.22,417.97 861.60,419.59 C860.89,421.46 863.41,423.12 867.48,423.44 C871.81,423.79 872.40,424.30 872.45,427.77 C872.50,430.70 875.64,432.19 877.03,429.95 C877.50,429.18 878.51,429.00 879.65,429.47 C880.95,430.01 881.11,430.38 880.19,430.72 C877.79,431.61 873.89,435.81 874.88,436.43 C875.42,436.76 877.67,436.42 879.87,435.66 C883.93,434.26 886.00,434.91 886.00,437.59 C886.00,438.24 887.69,439.09 889.75,439.47 C894.11,440.28 897.09,442.59 896.34,444.57 C895.89,445.73 895.36,445.72 892.95,444.48 C889.32,442.60 887.37,442.60 886.64,444.50 C885.62,447.16 890.40,449.31 896.10,448.76 C901.07,448.29 901.25,448.37 905.95,453.14 C908.58,455.81 911.23,458.00 911.83,458.00 C913.39,458.00 919.60,464.40 921.18,467.64 C921.90,469.13 923.80,471.07 925.38,471.94 C926.96,472.82 928.09,473.79 927.88,474.11 C927.24,475.09 930.16,478.02 931.16,477.40 C933.25,476.11 934.99,479.19 934.37,483.07 L 933.76 486.91 L 937.24 486.35 C940.43,485.83 940.82,486.04 941.79,488.81 C942.37,490.48 943.79,492.35 944.95,492.97 C946.11,493.59 947.77,495.88 948.64,498.06 C949.51,500.24 951.55,502.97 953.17,504.12 C955.65,505.89 956.01,506.67 955.47,509.15 C954.84,511.98 956.42,515.47 957.91,514.55 C959.27,513.71 960.77,515.63 964.35,522.80 C966.44,527.00 968.00,531.59 968.00,533.58 C968.00,536.31 968.50,537.24 970.37,537.95 C973.37,539.09 974.83,543.95 972.56,545.22 C970.81,546.20 970.55,548.74 971.97,550.99 C972.72,552.18 973.17,552.23 974.16,551.24 C976.22,549.18 977.00,549.82 977.00,553.59 C977.00,555.57 977.82,558.22 978.82,559.49 C979.82,560.76 981.24,564.32 981.98,567.40 C983.09,572.06 983.10,573.93 982.00,578.50 C980.66,584.10 980.95,585.68 984.17,590.14 C985.12,591.45 985.02,592.13 983.68,593.47 C982.76,594.39 982.00,595.93 982.00,596.89 C982.00,599.48 985.06,608.00 985.99,608.00 C988.15,608.00 987.83,611.43 985.46,613.62 L 982.90 616.00 L 983.55 630.75 C983.94,639.51 983.71,652.00 982.99,661.50 C982.33,670.30 981.85,678.29 981.93,679.25 C982.35,684.10 982.08,688.41 980.75,698.00 C979.95,703.78 978.95,709.31 978.52,710.29 C977.80,711.97 977.63,711.98 975.91,710.42 C972.83,707.63 971.00,709.30 971.00,714.91 C971.00,720.37 972.56,722.32 974.64,719.48 C976.90,716.38 977.29,718.60 975.47,724.19 C973.23,731.05 973.06,731.30 971.54,730.04 C968.98,727.91 967.82,731.37 968.56,738.87 C969.47,748.17 968.71,751.22 965.65,750.45 C964.22,750.09 962.88,750.44 962.09,751.39 C960.53,753.27 961.47,755.00 964.06,755.00 C966.30,755.00 966.46,755.90 964.82,759.49 L 963.64 762.08 L 961.40 759.29 C958.60,755.81 957.28,756.89 956.83,763.00 C956.55,766.86 956.76,767.48 958.33,767.35 C959.84,767.22 960.05,767.68 959.51,769.85 C958.59,773.57 953.63,777.81 949.76,778.19 C945.27,778.62 945.26,781.50 949.75,781.49 C953.45,781.48 953.90,782.88 951.03,785.48 C949.94,786.46 948.78,788.10 948.46,789.13 C948.13,790.16 947.03,791.00 946.00,791.00 C942.62,791.00 940.89,793.85 941.13,799.05 C941.39,804.73 939.98,806.91 936.49,806.24 C933.68,805.70 933.47,806.17 935.25,809.03 C936.34,810.77 936.12,811.40 933.50,813.94 C931.85,815.54 929.18,818.68 927.56,820.92 C925.95,823.15 923.81,825.24 922.81,825.56 C921.82,825.88 921.00,826.54 921.00,827.04 C921.00,828.34 911.63,838.00 910.36,838.00 C909.78,838.00 908.47,838.93 907.45,840.06 L 905.59 842.11 L 904.80 839.98 C903.36,836.09 900.54,837.95 900.21,843.01 C899.94,847.08 899.55,847.70 895.99,849.65 C892.70,851.45 891.89,851.57 890.92,850.41 C889.31,848.47 887.72,849.77 888.40,852.47 C888.77,853.93 888.36,855.21 887.23,856.12 C883.51,859.13 879.03,861.00 875.53,861.00 C872.37,861.00 871.95,861.27 872.47,862.92 C872.92,864.34 872.49,865.02 870.79,865.54 C869.53,865.92 864.46,868.23 859.51,870.67 C853.17,873.80 849.82,874.92 848.11,874.49 C846.71,874.14 845.38,874.38 844.97,875.05 C844.57,875.70 842.00,876.98 839.27,877.91 C834.55,879.51 834.32,879.50 834.75,877.84 C835.08,876.59 834.44,875.90 832.53,875.42 C828.97,874.52 824.64,876.52 825.23,878.78 C825.59,880.13 825.02,880.50 822.59,880.50 C820.24,880.50 819.43,880.99 819.21,882.55 C818.79,885.44 806.67,887.97 799.58,886.64 C796.12,886.00 793.66,886.08 791.31,886.93 C788.69,887.88 787.17,887.88 784.30,886.93 C780.85,885.79 780.51,885.88 778.51,888.38 C776.45,890.97 776.30,891.00 773.23,889.46 C766.18,885.95 758.37,886.35 757.82,890.25 C757.57,891.99 756.74,892.57 754.16,892.82 C751.21,893.10 750.90,892.91 751.46,891.13 C752.45,888.02 748.86,886.63 742.11,887.50 C739.02,887.90 733.80,888.23 730.50,888.23 C727.20,888.23 721.98,887.90 718.89,887.50 C712.53,886.68 709.00,887.94 709.00,891.04 ZM 115.41 367.62 C116.48,370.41 120.04,369.14 121.60,365.41 C123.20,361.59 122.28,359.00 119.33,359.00 C117.64,359.00 114.64,365.61 115.41,367.62 ZM 362.04 188.54 C363.49,190.29 368.14,190.46 369.78,188.82 C371.59,187.01 369.32,185.00 365.44,185.00 C361.64,185.00 360.28,186.42 362.04,188.54 ZM 956.23 527.83 C957.99,529.59 960.45,528.83 960.80,526.40 C961.15,523.92 958.63,521.54 956.51,522.36 C954.69,523.06 954.53,526.13 956.23,527.83 ZM 601.67 270.33 C602.74,271.40 605.82,271.10 606.59,269.85 C607.36,268.61 604.46,266.00 602.31,266.00 C600.96,266.00 600.49,269.16 601.67,270.33 ZM 84.00 711.61 C84.00,712.53 85.18,713.00 87.50,713.00 C91.35,713.00 92.07,711.64 89.07,710.04 C86.77,708.81 84.00,709.66 84.00,711.61 ZM 697.10 325.08 C699.09,326.34 700.50,325.65 700.50,323.43 C700.50,322.38 699.71,321.38 698.75,321.19 C696.53,320.76 695.21,323.89 697.10,325.08 ZM 928.44 490.90 C929.38,492.42 930.53,492.28 932.04,490.46 C933.01,489.28 933.04,488.64 932.15,487.75 C930.72,486.32 927.37,489.17 928.44,490.90 ZM 213.68 835.94 C215.61,838.19 217.50,838.18 217.50,835.92 C217.50,835.11 216.30,834.36 214.70,834.18 C211.95,833.86 211.93,833.90 213.68,835.94 ZM 498.56 212.47 C500.43,213.88 500.40,213.94 497.92,213.97 C495.27,214.00 494.00,213.31 494.00,211.83 C494.00,210.52 496.43,210.86 498.56,212.47 ZM 610.25 879.28 C611.94,879.89 613.00,879.18 613.00,877.44 C613.00,876.65 612.10,876.00 611.00,876.00 C608.82,876.00 608.23,878.56 610.25,879.28 ZM 902.46 461.93 C903.29,463.28 904.69,463.30 905.50,461.99 C905.85,461.44 905.40,460.71 904.52,460.37 C902.61,459.63 901.54,460.44 902.46,461.93 ZM 920.50 820.99 C921.31,822.30 922.71,822.28 923.54,820.93 C924.46,819.44 923.39,818.63 921.48,819.37 C920.60,819.71 920.15,820.44 920.50,820.99 ZM 146.00 320.70 C146.00,321.85 145.32,323.05 144.50,323.36 C142.62,324.08 142.63,323.07 144.53,320.56 C145.97,318.65 146.00,318.65 146.00,320.70 ZM 103.00 739.42 C103.00,740.29 103.71,741.00 104.58,741.00 C106.35,741.00 106.04,738.85 104.19,738.23 C103.53,738.01 103.00,738.55 103.00,739.42 ZM 91.00 407.58 C91.00,409.35 93.15,409.04 93.77,407.19 C93.99,406.53 93.45,406.00 92.58,406.00 C91.71,406.00 91.00,406.71 91.00,407.58 ZM 76.00 685.00 C76.00,685.55 76.45,686.00 77.00,686.00 C77.55,686.00 78.00,685.55 78.00,685.00 C78.00,684.45 77.55,684.00 77.00,684.00 C76.45,684.00 76.00,684.45 76.00,685.00 ZM 269.15 214.05 C268.93,214.71 269.29,215.07 269.95,214.85 C270.61,214.63 271.12,214.12 271.08,213.73 C270.95,212.53 269.58,212.76 269.15,214.05 Z" fill="rgb(254,183,193)"/>
<path d="M 781.50 895.59 C766.40,897.50 709.97,898.37 693.00,896.95 C667.12,894.79 648.29,892.74 633.00,890.42 C583.14,882.87 559.78,881.38 470.00,880.02 C387.45,878.78 362.20,877.54 326.00,872.95 C218.91,859.39 146.14,818.50 96.51,744.00 C62.81,693.41 46.06,635.52 46.01,569.44 C45.99,539.26 52.27,498.07 62.10,464.00 C65.22,453.18 75.00,426.34 79.04,417.50 C98.48,374.95 114.35,350.24 147.46,310.95 C176.18,276.88 206.85,246.99 233.00,227.62 C279.31,193.31 322.19,177.98 371.71,178.01 C438.22,178.05 513.48,206.78 649.00,283.85 C659.17,289.63 670.88,296.24 675.00,298.52 C679.12,300.81 689.70,306.86 698.50,311.97 C707.30,317.07 725.75,327.78 739.50,335.76 C785.47,362.44 820.60,384.05 848.38,402.73 C954.35,473.98 992.08,532.25 991.98,624.54 C991.94,660.00 985.80,704.69 976.54,736.86 C965.10,776.60 946.49,809.44 921.36,834.22 C906.35,849.02 893.51,858.38 874.00,868.73 C850.02,881.47 816.76,891.12 781.50,895.59 ZM 711.74 895.41 C712.28,895.95 739.77,895.55 765.00,894.64 C774.80,894.29 791.46,892.12 801.00,889.96 C805.67,888.90 812.08,887.59 815.23,887.05 C818.37,886.52 822.29,885.38 823.93,884.54 C825.56,883.69 827.87,883.00 829.06,883.00 C832.20,883.00 851.20,876.41 860.50,872.10 C884.27,861.09 892.18,856.13 908.00,842.37 C921.97,830.22 939.41,810.91 943.42,803.15 C944.32,801.42 945.43,800.00 945.89,800.00 C946.35,800.00 947.76,797.86 949.02,795.25 C950.28,792.64 951.69,789.83 952.15,789.00 C955.82,782.40 959.61,775.00 960.59,772.50 C961.23,770.85 963.54,765.42 965.72,760.44 C967.90,755.46 970.00,749.39 970.39,746.95 C970.78,744.51 971.95,740.71 972.99,738.51 C974.03,736.30 975.82,730.22 976.98,725.00 C978.13,719.78 979.74,713.41 980.54,710.87 C981.34,708.32 982.00,704.72 982.00,702.87 C982.01,701.01 982.70,695.45 983.54,690.50 C986.21,674.86 987.05,668.81 988.20,657.00 C989.78,640.76 990.32,607.37 989.07,602.39 C988.50,600.13 987.98,594.95 987.91,590.89 C987.83,586.82 987.42,583.05 986.99,582.50 C986.56,581.95 985.72,578.58 985.12,575.00 C983.66,566.25 982.04,560.05 980.38,556.85 C979.62,555.39 979.00,553.07 979.00,551.70 C979.00,549.46 974.96,540.11 965.73,521.00 C964.01,517.42 961.56,513.23 960.30,511.67 C959.03,510.12 958.00,508.07 958.00,507.11 C958.00,506.16 956.61,504.05 954.91,502.44 C953.21,500.82 951.12,498.15 950.27,496.50 C949.41,494.85 947.77,492.54 946.61,491.38 C945.45,490.21 942.70,487.12 940.50,484.50 C931.14,473.39 897.17,440.80 892.13,438.09 C890.68,437.32 887.45,434.50 884.95,431.84 C882.45,429.18 879.65,427.00 878.74,427.00 C877.84,427.00 875.89,425.93 874.43,424.61 C868.42,419.22 867.45,418.41 864.60,416.50 C862.97,415.40 860.63,413.83 859.40,413.00 C853.22,408.83 847.29,404.95 838.87,399.55 C833.77,396.27 828.78,392.78 827.80,391.80 C826.81,390.81 825.49,390.00 824.87,390.00 C824.24,390.00 823.01,389.17 822.12,388.16 C821.23,387.15 819.36,386.04 817.96,385.69 C816.56,385.35 813.64,383.28 811.48,381.10 C809.22,378.83 806.18,376.88 804.37,376.54 C802.63,376.21 800.65,375.28 799.98,374.47 C799.31,373.66 797.97,373.00 797.00,373.00 C796.03,373.00 794.63,372.26 793.87,371.35 C793.12,370.43 791.07,369.09 789.31,368.36 C786.34,367.12 779.93,363.21 777.39,361.11 C776.78,360.60 774.53,359.29 772.39,358.20 C770.25,357.10 767.24,355.03 765.70,353.60 C764.16,352.17 761.98,351.00 760.85,351.00 C759.65,351.00 758.60,350.18 758.29,349.00 C758.00,347.90 757.48,346.96 757.13,346.92 C756.79,346.87 755.45,346.72 754.16,346.58 C752.87,346.44 751.52,345.86 751.16,345.31 C750.80,344.75 748.88,343.76 746.90,343.12 C744.91,342.47 741.47,340.38 739.24,338.47 C737.01,336.56 734.67,335.00 734.05,335.00 C733.43,335.00 731.70,334.19 730.21,333.21 C725.39,330.03 723.55,328.99 720.75,327.89 C719.24,327.29 718.00,326.45 718.00,326.02 C718.00,325.59 716.54,324.65 714.75,323.93 C712.96,323.21 711.28,322.30 711.00,321.92 C710.72,321.54 707.58,319.79 704.00,318.03 C695.19,313.71 691.72,311.72 690.52,310.30 C689.96,309.65 687.08,308.17 684.13,307.02 C681.17,305.87 676.90,303.43 674.63,301.59 C672.36,299.75 667.12,296.53 663.00,294.42 C658.88,292.32 655.05,290.02 654.50,289.32 C653.95,288.62 651.51,287.36 649.08,286.51 C646.65,285.66 642.30,283.40 639.41,281.48 C636.52,279.57 633.78,278.00 633.31,278.00 C632.85,278.00 630.88,276.93 628.95,275.61 C625.20,273.06 618.84,269.59 599.06,259.27 C592.21,255.71 583.89,251.07 580.56,248.97 C577.23,246.87 573.30,244.85 571.82,244.49 C570.35,244.12 568.37,242.96 567.42,241.91 C566.47,240.86 564.62,240.00 563.30,240.00 C561.99,240.00 559.70,239.19 558.21,238.21 C553.33,234.98 551.55,233.98 548.00,232.45 C538.08,228.18 532.35,225.46 531.00,224.40 C529.27,223.05 519.66,219.00 509.50,215.35 C505.65,213.96 501.83,212.25 501.00,211.54 C500.17,210.83 497.82,209.71 495.76,209.05 C493.71,208.39 491.77,207.44 491.45,206.93 C491.14,206.42 489.76,206.00 488.39,206.00 C487.02,206.00 484.69,205.37 483.20,204.61 C481.72,203.85 475.33,201.56 469.00,199.53 C462.67,197.51 455.92,195.14 454.00,194.28 C450.30,192.62 445.70,191.43 437.50,190.03 C434.75,189.55 430.48,188.44 428.00,187.54 C415.53,183.03 395.93,181.00 364.74,181.00 C344.21,181.00 338.46,181.74 321.41,186.56 C318.61,187.35 315.22,188.00 313.86,188.00 C312.51,188.00 310.90,188.50 310.29,189.11 C309.68,189.72 307.10,190.61 304.58,191.08 C302.05,191.56 298.30,193.08 296.26,194.47 C294.21,195.86 291.85,197.00 291.02,197.00 C287.03,197.00 248.01,218.80 239.97,225.52 C237.68,227.44 235.50,229.00 235.12,229.00 C234.74,229.00 232.42,230.95 229.97,233.33 C227.51,235.72 223.26,239.19 220.51,241.04 C217.77,242.90 212.82,247.15 209.51,250.49 C206.21,253.83 202.04,257.59 200.25,258.85 C198.46,260.11 197.00,261.76 197.00,262.53 C197.00,263.30 195.99,264.46 194.75,265.10 C191.11,266.99 184.02,274.35 184.01,276.24 C184.00,277.24 182.62,278.57 180.75,279.37 C178.96,280.14 175.93,282.69 174.00,285.02 C172.07,287.35 168.30,291.57 165.62,294.38 C162.94,297.20 159.56,301.05 158.12,302.93 C156.68,304.82 153.16,308.83 150.30,311.83 C146.45,315.88 145.41,317.41 145.55,319.30 C145.39,319.45 145.17,319.72 144.87,320.11 C144.95,319.83 144.92,319.59 144.77,319.44 C144.45,319.11 142.39,321.24 140.20,324.17 C138.01,327.10 134.79,331.08 133.03,333.00 C131.28,334.92 129.11,337.74 128.21,339.25 C127.31,340.76 126.24,342.00 125.84,342.00 C125.44,342.00 123.40,344.50 121.30,347.56 C117.24,353.51 117.02,353.85 112.55,361.50 C110.94,364.25 108.58,367.77 107.31,369.33 C106.04,370.88 105.00,372.76 105.00,373.51 C105.00,374.26 104.10,375.15 103.00,375.50 C101.90,375.85 101.00,376.76 101.00,377.53 C101.00,378.30 98.23,384.24 94.84,390.72 C91.45,397.20 87.87,404.11 86.90,406.08 C85.92,408.05 84.44,410.22 83.62,410.90 C82.79,411.59 82.37,412.81 82.69,413.63 C83.00,414.44 82.46,417.00 81.49,419.30 C80.52,421.61 79.09,425.08 78.32,427.00 C77.54,428.92 76.40,431.40 75.79,432.49 C75.18,433.58 73.46,438.08 71.96,442.49 C69.10,450.88 67.92,454.24 64.98,462.50 C63.99,465.25 62.93,469.52 62.62,472.00 C62.31,474.48 60.69,480.55 59.03,485.50 C57.36,490.45 55.78,497.32 55.53,500.77 C55.27,504.22 54.63,508.72 54.10,510.77 C53.57,512.82 52.83,516.97 52.47,520.00 C52.10,523.03 51.57,525.88 51.28,526.35 C50.99,526.82 50.61,529.52 50.43,532.35 C50.25,535.18 49.86,538.85 49.55,540.51 C49.25,542.16 49.40,544.91 49.89,546.62 C50.55,548.92 50.28,551.21 48.86,555.42 C47.36,559.86 46.98,563.56 47.11,572.30 C47.21,578.46 47.67,585.08 48.14,587.00 C48.61,588.92 49.69,598.12 50.53,607.43 C51.37,616.74 52.73,627.54 53.55,631.43 C57.44,649.95 58.33,653.82 59.67,658.00 C60.47,660.47 61.56,664.30 62.11,666.50 C62.66,668.70 63.70,671.41 64.42,672.51 C65.15,673.62 66.06,676.10 66.44,678.01 C67.14,681.47 68.43,684.81 72.04,692.50 C73.07,694.70 75.10,699.20 76.56,702.50 C81.54,713.80 84.24,719.00 85.12,719.00 C85.60,719.00 86.00,719.56 86.01,720.25 C86.05,726.23 110.36,760.75 127.37,779.00 C128.65,780.38 130.24,782.51 130.89,783.75 C131.54,784.99 132.64,786.00 133.34,786.00 C134.04,786.00 137.29,788.77 140.56,792.14 C143.83,795.52 148.30,799.40 150.50,800.76 C152.70,802.12 156.30,804.93 158.50,807.00 C160.70,809.07 164.48,812.06 166.91,813.64 C171.80,816.81 173.69,818.10 179.94,822.50 C182.29,824.15 185.54,826.25 187.17,827.16 C188.80,828.07 190.89,829.45 191.82,830.22 C192.74,830.99 195.52,832.41 198.00,833.38 C200.48,834.34 204.52,836.16 207.00,837.42 C209.48,838.68 215.77,841.41 221.00,843.49 C226.23,845.57 231.39,847.89 232.47,848.64 C233.56,849.39 235.58,850.00 236.97,850.01 C238.36,850.01 240.85,850.75 242.50,851.64 C244.15,852.54 247.65,853.64 250.28,854.08 C252.91,854.52 256.96,855.77 259.28,856.85 C261.60,857.93 265.98,859.29 269.00,859.87 C279.85,861.95 290.55,864.23 293.50,865.09 C295.15,865.57 299.42,866.41 303.00,866.95 C306.58,867.49 312.65,868.45 316.50,869.08 C320.35,869.72 325.24,870.20 327.36,870.17 C329.48,870.13 333.19,870.77 335.60,871.58 C338.60,872.60 349.21,873.51 369.24,874.44 C385.33,875.20 399.57,876.07 400.87,876.37 C402.17,876.68 427.82,877.17 457.87,877.46 C527.42,878.14 557.08,878.86 564.00,880.03 C567.03,880.54 577.60,881.45 587.50,882.05 C597.40,882.64 608.65,883.74 612.50,884.49 C635.66,888.97 680.08,894.16 698.30,894.51 C705.34,894.65 711.39,895.05 711.74,895.41 ZM 144.53 323.35 C145.05,323.14 145.50,322.58 145.76,321.91 C145.64,322.63 145.26,323.07 144.60,323.32 C144.57,323.33 144.55,323.34 144.53,323.35 ZM 143.71 321.73 C143.23,322.50 143.03,323.04 143.12,323.33 C142.92,323.04 143.11,322.46 143.71,321.73 Z" fill="rgb(246,188,197)"/>
<path d="M 146.00 320.70 C146.00,319.33 145.99,318.88 145.55,319.30 C145.41,317.41 146.45,315.88 150.30,311.83 C153.16,308.83 156.68,304.82 158.12,302.93 C159.56,301.05 162.94,297.20 165.62,294.38 C168.30,291.57 172.07,287.35 174.00,285.02 C175.93,282.69 178.96,280.14 180.75,279.37 C182.62,278.57 184.00,277.24 184.01,276.24 C184.02,274.35 191.11,266.99 194.75,265.10 C195.99,264.46 197.00,263.30 197.00,262.53 C197.00,261.76 198.46,260.11 200.25,258.85 C202.04,257.59 206.21,253.83 209.51,250.49 C212.82,247.15 217.77,242.90 220.51,241.04 C223.26,239.19 227.51,235.72 229.97,233.33 C232.42,230.95 234.74,229.00 235.12,229.00 C235.50,229.00 237.68,227.44 239.97,225.52 C248.01,218.80 287.03,197.00 291.02,197.00 C291.85,197.00 294.21,195.86 296.26,194.47 C298.30,193.08 302.05,191.56 304.58,191.08 C307.10,190.61 309.68,189.72 310.29,189.11 C310.90,188.50 312.51,188.00 313.86,188.00 C315.22,188.00 318.61,187.35 321.41,186.56 C338.46,181.74 344.21,181.00 364.74,181.00 C395.93,181.00 415.53,183.03 428.00,187.54 C430.48,188.44 434.75,189.55 437.50,190.03 C445.70,191.43 450.30,192.62 454.00,194.28 C455.92,195.14 462.67,197.51 469.00,199.53 C475.33,201.56 481.72,203.85 483.20,204.61 C484.69,205.37 487.02,206.00 488.39,206.00 C489.76,206.00 491.14,206.42 491.45,206.93 C491.77,207.44 493.71,208.39 495.76,209.05 C497.82,209.71 500.17,210.83 501.00,211.54 C501.83,212.25 505.65,213.96 509.50,215.35 C519.66,219.00 529.27,223.05 531.00,224.40 C532.35,225.46 538.08,228.18 548.00,232.45 C551.55,233.98 553.33,234.98 558.21,238.21 C559.70,239.19 561.99,240.00 563.30,240.00 C564.62,240.00 566.47,240.86 567.42,241.91 C568.37,242.96 570.35,244.12 571.82,244.49 C573.30,244.85 577.23,246.87 580.56,248.97 C583.89,251.07 592.21,255.71 599.06,259.27 C618.84,269.59 625.20,273.06 628.95,275.61 C630.88,276.93 632.85,278.00 633.31,278.00 C633.78,278.00 636.52,279.57 639.41,281.48 C642.30,283.40 646.65,285.66 649.08,286.51 C651.51,287.36 653.95,288.62 654.50,289.32 C655.05,290.02 658.88,292.32 663.00,294.42 C667.12,296.53 672.36,299.75 674.63,301.59 C676.90,303.43 681.17,305.87 684.13,307.02 C687.08,308.17 689.96,309.65 690.52,310.30 C691.72,311.72 695.19,313.71 704.00,318.03 C707.58,319.79 710.72,321.54 711.00,321.92 C711.28,322.30 712.96,323.21 714.75,323.93 C716.54,324.65 718.00,325.59 718.00,326.02 C718.00,326.45 719.24,327.29 720.75,327.89 C723.55,328.99 725.39,330.03 730.21,333.21 C731.70,334.19 733.43,335.00 734.05,335.00 C734.67,335.00 737.01,336.56 739.24,338.47 C741.47,340.38 744.91,342.47 746.90,343.12 C748.88,343.76 750.80,344.75 751.16,345.31 C751.52,345.86 752.87,346.44 754.16,346.58 C755.45,346.72 756.79,346.87 757.13,346.92 C757.48,346.96 758.00,347.90 758.29,349.00 C758.60,350.18 759.65,351.00 760.85,351.00 C761.98,351.00 764.16,352.17 765.70,353.60 C767.24,355.03 770.25,357.10 772.39,358.20 C774.53,359.29 776.78,360.60 777.39,361.11 C779.93,363.21 786.34,367.12 789.31,368.36 C791.07,369.09 793.12,370.43 793.87,371.35 C794.63,372.26 796.03,373.00 797.00,373.00 C797.97,373.00 799.31,373.66 799.98,374.47 C800.65,375.28 802.63,376.21 804.37,376.54 C806.18,376.88 809.22,378.83 811.48,381.10 C813.64,383.28 816.56,385.35 817.96,385.69 C819.36,386.04 821.23,387.15 822.12,388.16 C823.01,389.17 824.24,390.00 824.87,390.00 C825.49,390.00 826.81,390.81 827.80,391.80 C828.78,392.78 833.77,396.27 838.87,399.55 C847.29,404.95 853.22,408.83 859.40,413.00 C860.63,413.83 862.97,415.40 864.60,416.50 C867.45,418.41 868.42,419.22 874.43,424.61 C875.89,425.93 877.84,427.00 878.74,427.00 C879.65,427.00 882.45,429.18 884.95,431.84 C887.45,434.50 890.68,437.32 892.13,438.09 C897.17,440.80 931.14,473.39 940.50,484.50 C942.70,487.12 945.45,490.21 946.61,491.38 C947.77,492.54 949.41,494.85 950.27,496.50 C951.12,498.15 953.21,500.82 954.91,502.44 C956.61,504.05 958.00,506.16 958.00,507.11 C958.00,508.07 959.03,510.12 960.30,511.67 C961.56,513.23 964.01,517.42 965.73,521.00 C974.96,540.11 979.00,549.46 979.00,551.70 C979.00,553.07 979.62,555.39 980.38,556.85 C982.04,560.05 983.66,566.25 985.12,575.00 C985.72,578.58 986.56,581.95 986.99,582.50 C987.42,583.05 987.83,586.82 987.91,590.89 C987.98,594.95 988.50,600.13 989.07,602.39 C990.32,607.37 989.78,640.76 988.20,657.00 C987.05,668.81 986.21,674.86 983.54,690.50 C982.70,695.45 982.01,701.01 982.00,702.87 C982.00,704.72 981.34,708.32 980.54,710.87 C979.74,713.41 978.13,719.78 976.98,725.00 C975.82,730.22 974.03,736.30 972.99,738.51 C971.95,740.71 970.78,744.51 970.39,746.95 C970.00,749.39 967.90,755.46 965.72,760.44 C963.54,765.42 961.23,770.85 960.59,772.50 C959.61,775.00 955.82,782.40 952.15,789.00 C951.69,789.83 950.28,792.64 949.02,795.25 C947.76,797.86 946.35,800.00 945.89,800.00 C945.43,800.00 944.32,801.42 943.42,803.15 C939.41,810.91 921.97,830.22 908.00,842.37 C892.18,856.13 884.27,861.09 860.50,872.10 C851.20,876.41 832.20,883.00 829.06,883.00 C827.87,883.00 825.56,883.69 823.93,884.54 C822.29,885.38 818.37,886.52 815.23,887.05 C812.08,887.59 805.67,888.90 801.00,889.96 C791.46,892.12 774.80,894.29 765.00,894.64 C739.77,895.55 712.28,895.95 711.74,895.41 C711.39,895.05 705.34,894.65 698.30,894.51 C680.08,894.16 635.66,888.97 612.50,884.49 C608.65,883.74 597.40,882.64 587.50,882.05 C577.60,881.45 567.03,880.54 564.00,880.03 C557.08,878.86 527.42,878.14 457.87,877.46 C427.82,877.17 402.17,876.68 400.87,876.37 C399.57,876.07 385.33,875.20 369.24,874.44 C349.21,873.51 338.60,872.60 335.60,871.58 C333.19,870.77 329.48,870.13 327.36,870.17 C325.24,870.20 320.35,869.72 316.50,869.08 C312.65,868.45 306.58,867.49 303.00,866.95 C299.42,866.41 295.15,865.57 293.50,865.09 C290.55,864.23 279.85,861.95 269.00,859.87 C265.98,859.29 261.60,857.93 259.28,856.85 C256.96,855.77 252.91,854.52 250.28,854.08 C247.65,853.64 244.15,852.54 242.50,851.64 C240.85,850.75 238.36,850.01 236.97,850.01 C235.58,850.00 233.56,849.39 232.47,848.64 C231.39,847.89 226.23,845.57 221.00,843.49 C215.77,841.41 209.48,838.68 207.00,837.42 C204.52,836.16 200.48,834.34 198.00,833.38 C195.52,832.41 192.74,830.99 191.82,830.22 C190.89,829.45 188.80,828.07 187.17,827.16 C185.54,826.25 182.29,824.15 179.94,822.50 C173.69,818.10 171.80,816.81 166.91,813.64 C164.48,812.06 160.70,809.07 158.50,807.00 C156.30,804.93 152.70,802.12 150.50,800.76 C148.30,799.40 143.83,795.52 140.56,792.14 C137.29,788.77 134.04,786.00 133.34,786.00 C132.64,786.00 131.54,784.99 130.89,783.75 C130.24,782.51 128.65,780.38 127.37,779.00 C110.36,760.75 86.05,726.23 86.01,720.25 C86.00,719.56 85.60,719.00 85.12,719.00 C84.24,719.00 81.54,713.80 76.56,702.50 C75.10,699.20 73.07,694.70 72.04,692.50 C68.43,684.81 67.14,681.47 66.44,678.01 C66.06,676.10 65.15,673.62 64.42,672.51 C63.70,671.41 62.66,668.70 62.11,666.50 C61.56,664.30 60.47,660.47 59.67,658.00 C58.33,653.82 57.44,649.95 53.55,631.43 C52.73,627.54 51.37,616.74 50.53,607.43 C49.69,598.12 48.61,588.92 48.14,587.00 C47.67,585.08 47.21,578.46 47.11,572.30 C46.98,563.56 47.36,559.86 48.86,555.42 C50.28,551.21 50.55,548.92 49.89,546.62 C49.40,544.91 49.25,542.16 49.55,540.51 C49.86,538.85 50.25,535.18 50.43,532.35 C50.61,529.52 50.99,526.82 51.28,526.35 C51.57,525.88 52.10,523.03 52.47,520.00 C52.83,516.97 53.57,512.82 54.10,510.77 C54.63,508.72 55.27,504.22 55.53,500.77 C55.78,497.32 57.36,490.45 59.03,485.50 C60.69,480.55 62.31,474.48 62.62,472.00 C62.93,469.52 63.99,465.25 64.98,462.50 C67.92,454.24 69.10,450.88 71.96,442.49 C73.46,438.08 75.18,433.58 75.79,432.49 C76.40,431.40 77.54,428.92 78.32,427.00 C79.09,425.08 80.52,421.61 81.49,419.30 C82.46,417.00 83.00,414.44 82.69,413.63 C82.37,412.81 82.79,411.59 83.62,410.90 C84.44,410.22 85.92,408.05 86.90,406.08 C87.87,404.11 91.45,397.20 94.84,390.72 C98.23,384.24 101.00,378.30 101.00,377.53 C101.00,376.76 101.90,375.85 103.00,375.50 C104.10,375.15 105.00,374.26 105.00,373.51 C105.00,372.76 106.04,370.88 107.31,369.33 C108.58,367.77 110.94,364.25 112.55,361.50 C117.02,353.85 117.24,353.51 121.30,347.56 C123.40,344.50 125.44,342.00 125.84,342.00 C126.24,342.00 127.31,340.76 128.21,339.25 C129.11,337.74 131.28,334.92 133.03,333.00 C134.79,331.08 138.01,327.10 140.20,324.17 C142.39,321.24 144.45,319.11 144.77,319.44 C144.92,319.59 144.95,319.83 144.87,320.11 C144.77,320.25 144.66,320.39 144.53,320.56 C144.20,321.00 143.93,321.39 143.71,321.73 C143.11,322.46 142.92,323.04 143.12,323.33 C143.22,323.66 143.68,323.68 144.50,323.36 C144.51,323.36 144.52,323.35 144.53,323.35 C144.55,323.34 144.57,323.33 144.60,323.32 C145.26,323.07 145.64,322.63 145.76,321.91 C145.91,321.53 146.00,321.11 146.00,320.70 ZM 709.00 891.04 C709.00,887.94 712.53,886.68 718.89,887.50 C721.98,887.90 727.20,888.23 730.50,888.23 C733.80,888.23 739.02,887.90 742.11,887.50 C748.86,886.63 752.45,888.02 751.46,891.13 C750.90,892.91 751.21,893.10 754.16,892.82 C756.74,892.57 757.57,891.99 757.82,890.25 C758.37,886.35 766.18,885.95 773.23,889.46 C776.30,891.00 776.45,890.97 778.51,888.38 C780.51,885.88 780.85,885.79 784.30,886.93 C787.17,887.88 788.69,887.88 791.31,886.93 C793.66,886.08 796.12,886.00 799.58,886.64 C806.67,887.97 818.79,885.44 819.21,882.55 C819.43,880.99 820.24,880.50 822.59,880.50 C825.02,880.50 825.59,880.13 825.23,878.78 C824.64,876.52 828.97,874.52 832.53,875.42 C834.44,875.90 835.08,876.59 834.75,877.84 C834.32,879.50 834.55,879.51 839.27,877.91 C842.00,876.98 844.57,875.70 844.97,875.05 C845.38,874.38 846.71,874.14 848.11,874.49 C849.82,874.92 853.17,873.80 859.51,870.67 C864.46,868.23 869.53,865.92 870.79,865.54 C872.49,865.02 872.92,864.34 872.47,862.92 C871.95,861.27 872.37,861.00 875.53,861.00 C879.03,861.00 883.51,859.13 887.23,856.12 C888.36,855.21 888.77,853.93 888.40,852.47 C887.72,849.77 889.31,848.47 890.92,850.41 C891.89,851.57 892.70,851.45 895.99,849.65 C899.55,847.70 899.94,847.08 900.21,843.01 C900.54,837.95 903.36,836.09 904.80,839.98 L 905.59 842.11 L 907.45 840.06 C908.47,838.93 909.78,838.00 910.36,838.00 C911.63,838.00 921.00,828.34 921.00,827.04 C921.00,826.54 921.82,825.88 922.81,825.56 C923.81,825.24 925.95,823.15 927.56,820.92 C929.18,818.68 931.85,815.54 933.50,813.94 C936.12,811.40 936.34,810.77 935.25,809.03 C933.47,806.17 933.68,805.70 936.49,806.24 C939.98,806.91 941.39,804.73 941.13,799.05 C940.89,793.85 942.62,791.00 946.00,791.00 C947.03,791.00 948.13,790.16 948.46,789.13 C948.78,788.10 949.94,786.46 951.03,785.48 C953.90,782.88 953.45,781.48 949.75,781.49 C945.26,781.50 945.27,778.62 949.76,778.19 C953.63,777.81 958.59,773.57 959.51,769.85 C960.05,767.68 959.84,767.22 958.33,767.35 C956.76,767.48 956.55,766.86 956.83,763.00 C957.28,756.89 958.60,755.81 961.40,759.29 L 963.64 762.08 L 964.82 759.49 C966.46,755.90 966.30,755.00 964.06,755.00 C961.47,755.00 960.53,753.27 962.09,751.39 C962.88,750.44 964.22,750.09 965.65,750.45 C968.71,751.22 969.47,748.17 968.56,738.87 C967.82,731.37 968.98,727.91 971.54,730.04 C973.06,731.30 973.23,731.05 975.47,724.19 C977.29,718.60 976.90,716.38 974.64,719.48 C972.56,722.32 971.00,720.37 971.00,714.91 C971.00,709.30 972.83,707.63 975.91,710.42 C977.63,711.98 977.80,711.97 978.52,710.29 C978.95,709.31 979.95,703.78 980.75,698.00 C982.08,688.41 982.35,684.10 981.93,679.25 C981.85,678.29 982.33,670.30 982.99,661.50 C983.71,652.00 983.94,639.51 983.55,630.75 L 982.90 616.00 L 985.46 613.62 C987.83,611.43 988.15,608.00 985.99,608.00 C985.06,608.00 982.00,599.48 982.00,596.89 C982.00,595.93 982.76,594.39 983.68,593.47 C985.02,592.13 985.12,591.45 984.17,590.14 C980.95,585.68 980.66,584.10 982.00,578.50 C983.10,573.93 983.09,572.06 981.98,567.40 C981.24,564.32 979.82,560.76 978.82,559.49 C977.82,558.22 977.00,555.57 977.00,553.59 C977.00,549.82 976.22,549.18 974.16,551.24 C973.17,552.23 972.72,552.18 971.97,550.99 C970.55,548.74 970.81,546.20 972.56,545.22 C974.83,543.95 973.37,539.09 970.37,537.95 C968.50,537.24 968.00,536.31 968.00,533.58 C968.00,531.59 966.44,527.00 964.35,522.80 C960.77,515.63 959.27,513.71 957.91,514.55 C956.42,515.47 954.84,511.98 955.47,509.15 C956.01,506.67 955.65,505.89 953.17,504.12 C951.55,502.97 949.51,500.24 948.64,498.06 C947.77,495.88 946.11,493.59 944.95,492.97 C943.79,492.35 942.37,490.48 941.79,488.81 C940.82,486.04 940.43,485.83 937.24,486.35 L 933.76 486.91 L 934.37 483.07 C934.99,479.19 933.25,476.11 931.16,477.40 C930.16,478.02 927.24,475.09 927.88,474.11 C928.09,473.79 926.96,472.82 925.38,471.94 C923.80,471.07 921.90,469.13 921.18,467.64 C919.60,464.40 913.39,458.00 911.83,458.00 C911.23,458.00 908.58,455.81 905.95,453.14 C901.25,448.37 901.07,448.29 896.10,448.76 C890.40,449.31 885.62,447.16 886.64,444.50 C887.37,442.60 889.32,442.60 892.95,444.48 C895.36,445.72 895.89,445.73 896.34,444.57 C897.09,442.59 894.11,440.28 889.75,439.47 C887.69,439.09 886.00,438.24 886.00,437.59 C886.00,434.91 883.93,434.26 879.87,435.66 C877.67,436.42 875.42,436.76 874.88,436.43 C873.89,435.81 877.79,431.61 880.19,430.72 C881.11,430.38 880.95,430.01 879.65,429.47 C878.51,429.00 877.50,429.18 877.03,429.95 C875.64,432.19 872.50,430.70 872.45,427.77 C872.40,424.30 871.81,423.79 867.48,423.44 C863.41,423.12 860.89,421.46 861.60,419.59 C862.22,417.97 860.19,416.29 857.08,415.85 C855.65,415.64 853.98,414.29 853.02,412.55 C851.53,409.85 843.96,404.34 836.50,400.52 C832.46,398.45 826.58,394.11 826.15,392.88 C825.95,392.33 824.98,392.62 823.97,393.53 C821.63,395.64 818.77,395.09 817.54,392.30 C817.01,391.09 815.53,389.85 814.26,389.53 C812.69,389.14 811.75,387.98 811.34,385.97 C811.02,384.34 810.24,382.93 809.62,382.85 C809.01,382.76 808.05,382.59 807.50,382.46 C806.95,382.34 805.95,382.18 805.28,382.12 C804.61,382.05 804.32,381.33 804.64,380.50 C805.35,378.64 803.23,378.53 801.08,380.31 C796.09,384.44 790.20,384.16 792.82,379.92 C793.98,378.06 793.89,377.54 792.07,375.85 C790.93,374.79 790.00,373.05 790.00,371.98 C790.00,370.69 789.08,369.82 787.25,369.38 C785.74,369.02 783.93,368.27 783.23,367.72 C782.53,367.17 780.05,366.67 777.73,366.61 C774.14,366.52 773.45,366.16 773.18,364.25 C772.99,362.90 773.39,361.99 774.18,361.97 C776.22,361.92 771.92,359.00 769.81,359.00 C768.81,359.00 768.00,359.45 768.00,360.00 C768.00,360.55 767.07,361.00 765.94,361.00 C764.57,361.00 763.93,360.41 764.05,359.25 C764.43,355.50 763.98,355.00 760.15,355.00 C757.08,355.00 754.97,354.00 749.78,350.07 C746.20,347.35 742.97,344.37 742.62,343.44 C742.10,342.09 741.18,341.88 738.10,342.37 C735.30,342.82 733.89,342.57 732.99,341.49 C732.31,340.67 730.77,340.00 729.57,340.00 C727.12,340.00 722.53,334.55 722.73,331.88 C722.87,330.09 716.21,327.00 712.22,327.00 C710.67,327.00 710.00,326.40 710.00,325.01 C710.00,323.56 708.31,322.20 703.75,319.99 C695.20,315.85 689.00,312.04 689.00,310.93 C689.00,310.42 687.64,310.00 685.99,310.00 C682.51,310.00 679.74,308.62 675.45,304.75 C673.77,303.23 670.07,300.76 667.22,299.25 C664.38,297.74 658.86,294.55 654.95,292.16 C648.36,288.13 647.36,287.82 640.84,287.82 C632.51,287.82 627.00,285.89 627.00,282.96 C627.00,280.19 629.67,279.39 631.96,281.47 C633.00,282.41 634.64,283.02 635.60,282.84 C636.80,282.61 635.47,281.35 631.43,278.88 C622.22,273.24 619.48,272.06 617.09,272.69 C615.43,273.12 614.75,272.76 614.34,271.20 C614.01,269.94 611.60,268.05 608.15,266.36 C605.04,264.83 601.18,262.69 599.56,261.59 C597.95,260.50 595.02,259.54 593.06,259.46 C591.10,259.38 587.56,258.77 585.19,258.10 C581.33,257.02 580.90,256.60 581.19,254.19 C581.47,251.73 581.20,251.50 578.00,251.45 C575.65,251.41 574.49,250.92 574.47,249.95 C574.42,247.05 572.84,245.93 569.17,246.22 C565.84,246.47 565.52,246.28 565.76,244.13 C565.98,242.10 565.70,241.86 563.76,242.45 C559.87,243.63 548.90,244.65 548.43,243.88 C548.18,243.48 548.84,242.87 549.89,242.53 C550.95,242.20 552.07,241.27 552.38,240.46 C552.68,239.66 553.65,239.00 554.53,239.00 C555.40,239.00 555.84,238.55 555.50,238.00 C554.51,236.39 550.83,236.85 549.42,238.75 C548.20,240.40 548.02,240.40 546.40,238.80 C544.97,237.39 544.89,236.83 545.96,235.55 C547.08,234.20 546.41,233.61 540.90,231.11 C535.89,228.84 534.34,228.49 533.53,229.49 C532.37,230.92 521.00,232.47 521.00,231.20 C521.00,230.75 522.35,229.38 524.00,228.16 C525.65,226.94 527.00,225.55 527.00,225.08 C527.00,223.59 523.94,222.96 521.92,224.04 C520.30,224.91 519.83,224.67 519.03,222.59 C518.37,220.84 516.88,219.78 514.02,219.01 C511.78,218.40 509.53,218.17 509.01,218.50 C508.49,218.82 506.74,218.40 505.13,217.57 C502.55,216.23 502.05,216.23 500.98,217.53 C500.31,218.34 499.20,219.00 498.53,219.00 C496.95,219.00 493.67,215.37 493.37,213.30 C492.93,210.32 489.13,207.66 482.79,205.89 C473.51,203.30 466.84,201.02 463.85,199.42 C460.08,197.40 458.46,197.64 456.59,200.50 C454.71,203.37 452.81,203.68 450.93,201.42 C449.93,200.21 449.89,199.41 450.77,198.00 C452.30,195.54 451.10,194.73 443.00,192.72 C426.57,188.66 420.77,187.75 419.92,189.12 C419.32,190.10 416.32,190.39 408.16,190.24 C399.53,190.08 396.96,190.35 395.99,191.52 C393.75,194.21 385.00,193.00 385.00,190.00 C385.00,189.03 384.07,187.99 382.92,187.69 C381.44,187.30 380.94,186.49 381.17,184.82 C381.49,182.60 381.21,182.49 374.50,182.33 C370.65,182.24 364.91,182.41 361.75,182.71 C357.13,183.15 356.00,183.60 356.00,185.02 C356.00,187.27 354.04,188.00 347.98,188.00 C345.30,188.00 342.84,188.45 342.50,189.00 C341.53,190.57 336.84,190.17 334.82,188.34 C332.38,186.13 326.89,186.43 320.00,189.14 C316.98,190.34 312.02,191.51 309.00,191.75 C302.80,192.24 295.92,196.32 297.92,198.32 C298.51,198.91 299.00,199.76 299.00,200.20 C299.00,201.50 296.97,201.11 295.36,199.50 C292.76,196.90 284.84,199.67 285.68,202.87 C286.21,204.93 284.52,206.66 283.54,205.06 C283.21,204.53 282.39,204.26 281.72,204.46 C281.05,204.67 279.29,205.10 277.82,205.42 C276.35,205.74 274.55,206.56 273.82,207.25 C273.09,207.94 269.69,209.82 266.25,211.43 C261.19,213.81 260.00,214.82 260.00,216.72 C260.00,218.74 259.55,219.03 256.75,218.86 C252.98,218.62 249.39,220.38 242.77,225.70 C240.16,227.79 234.54,232.28 230.27,235.68 C225.99,239.08 220.80,243.47 218.72,245.43 C216.64,247.39 214.43,249.00 213.80,249.00 C211.90,249.00 209.10,252.09 209.66,253.57 C210.11,254.73 210.64,254.72 213.05,253.48 C216.68,251.60 218.63,251.60 219.36,253.50 C220.27,255.86 216.09,257.94 211.16,257.58 C207.86,257.34 206.39,257.74 204.99,259.24 C203.98,260.33 202.76,260.97 202.28,260.67 C201.80,260.38 200.84,260.48 200.15,260.91 C199.15,261.53 199.15,262.23 200.16,264.45 C201.26,266.87 201.19,267.39 199.57,268.57 C198.29,269.51 197.17,269.63 195.93,268.96 C193.26,267.54 193.00,267.72 193.00,270.99 C193.00,273.54 192.66,273.93 190.75,273.62 C189.51,273.42 187.68,273.68 186.68,274.20 C184.99,275.08 184.98,275.32 186.46,277.58 C188.20,280.23 187.14,284.00 184.65,284.00 C183.95,284.00 182.05,285.38 180.44,287.07 C178.17,289.44 176.90,290.02 174.87,289.62 C172.58,289.17 172.15,289.49 171.64,292.05 C171.16,294.45 170.54,295.00 168.32,295.00 C166.21,295.00 165.87,295.27 166.80,296.20 C168.37,297.77 168.34,300.97 166.75,301.11 C166.06,301.17 164.52,301.14 163.31,301.05 C161.88,300.93 160.53,301.84 159.39,303.69 C158.43,305.23 155.90,308.21 153.76,310.31 C150.38,313.62 149.96,314.52 150.54,317.18 C150.91,318.86 150.75,321.20 150.20,322.37 C149.64,323.54 148.93,325.30 148.61,326.27 C147.83,328.72 145.12,329.56 142.76,328.08 C141.09,327.04 140.43,327.19 138.44,329.06 C137.15,330.27 136.18,331.59 136.29,331.98 C136.41,332.37 135.15,334.07 133.50,335.74 C128.10,341.24 125.47,344.44 123.02,348.50 C121.69,350.70 118.82,354.94 116.65,357.92 C114.47,360.90 112.57,364.42 112.42,365.75 C112.28,367.08 111.45,368.95 110.58,369.91 C109.71,370.87 109.00,372.87 109.00,374.35 C109.00,377.00 99.83,390.00 97.96,390.00 C96.30,390.00 95.02,397.05 96.30,399.10 C97.15,400.47 97.19,401.48 96.42,402.69 C94.79,405.28 93.24,405.35 92.46,402.87 C91.86,400.99 90.93,402.33 86.80,411.01 C82.71,419.63 82.04,421.79 82.89,423.67 C83.68,425.40 83.57,426.29 82.39,427.47 C81.55,428.31 80.51,429.00 80.09,429.00 C79.67,429.00 78.77,430.22 78.09,431.71 C77.05,433.99 77.10,434.60 78.43,435.57 C80.29,436.94 80.54,441.95 78.75,442.12 C78.06,442.18 76.71,442.15 75.75,442.05 C73.72,441.85 73.45,444.15 75.19,446.93 C76.63,449.25 75.02,451.71 71.75,452.19 C70.12,452.43 69.38,453.63 68.51,457.50 C67.88,460.25 66.86,463.45 66.23,464.60 C64.54,467.72 63.70,476.93 64.97,478.46 C65.56,479.17 66.15,482.16 66.27,485.09 C66.46,489.49 66.19,490.49 64.75,490.79 C63.63,491.02 62.66,490.30 62.10,488.82 C61.44,487.11 61.07,486.89 60.72,488.00 C57.48,498.08 54.68,514.61 55.43,519.27 C55.91,522.28 55.65,523.73 54.38,525.13 C53.45,526.16 53.04,527.00 53.47,527.00 C53.90,527.00 53.71,527.65 53.05,528.44 C52.21,529.45 52.16,530.43 52.88,531.77 C53.48,532.89 53.86,541.32 53.81,552.09 C53.75,562.21 54.21,575.45 54.82,581.50 C55.76,590.82 55.70,592.72 54.48,593.95 C53.21,595.22 52.95,594.99 52.39,592.18 C51.53,587.92 50.00,587.09 50.00,590.88 C50.00,592.53 50.39,594.12 50.86,594.41 C51.33,594.70 52.03,599.99 52.42,606.17 C52.81,612.35 53.41,617.85 53.74,618.39 C54.08,618.94 54.43,621.47 54.52,624.03 C54.80,632.14 57.16,640.81 59.24,641.35 C60.84,641.77 61.02,642.55 60.54,647.17 C60.08,651.63 60.16,652.06 61.06,649.80 C62.25,646.80 65.61,645.21 67.27,646.87 C68.83,648.43 66.33,659.00 64.40,659.00 C63.59,659.00 62.49,657.99 61.94,656.75 C60.99,654.61 60.97,654.62 61.57,657.00 C64.11,667.21 64.73,668.50 66.88,668.19 C69.67,667.78 70.22,669.48 69.15,675.23 C68.51,678.67 68.62,680.44 69.56,681.78 C70.26,682.79 71.24,685.16 71.73,687.06 C72.31,689.30 73.56,690.96 75.33,691.81 C79.57,693.87 81.20,697.01 79.86,700.57 C78.88,703.15 79.13,704.31 81.76,709.52 C83.42,712.81 85.73,716.36 86.89,717.40 C88.05,718.45 89.00,719.87 89.00,720.55 C89.00,721.23 90.17,722.08 91.61,722.44 C93.85,723.00 94.15,723.52 93.77,726.14 C93.48,728.10 93.80,729.37 94.66,729.70 C95.40,729.98 96.00,731.53 96.00,733.14 C96.00,734.82 96.64,736.31 97.50,736.64 C98.33,736.96 99.88,739.21 100.96,741.65 C102.04,744.09 103.85,747.38 104.97,748.96 C106.83,751.57 107.27,751.73 109.93,750.72 C112.10,749.90 113.52,749.92 115.43,750.79 C118.70,752.28 118.74,753.96 115.50,754.12 C111.39,754.33 111.00,754.46 111.11,755.50 C111.27,756.98 118.07,764.27 118.69,763.64 C118.99,763.34 119.52,761.71 119.87,760.00 C120.22,758.29 120.95,756.87 121.50,756.84 C123.09,756.74 124.34,766.19 123.02,768.33 C122.08,769.85 122.49,770.89 125.44,774.49 C128.07,777.70 129.50,778.68 130.99,778.29 C132.69,777.85 133.00,778.25 133.00,780.88 C133.00,782.60 133.43,784.00 133.97,784.00 C134.50,784.00 136.51,785.58 138.43,787.50 C140.36,789.42 142.40,791.00 142.97,791.00 C143.54,791.00 144.00,791.90 144.00,793.00 C144.00,794.62 144.67,795.00 147.50,795.00 C149.43,795.00 151.00,795.46 151.00,796.02 C151.00,796.59 152.15,797.49 153.55,798.02 C155.01,798.58 156.71,800.45 157.54,802.43 C158.33,804.33 160.49,807.03 162.33,808.44 C166.09,811.30 169.27,811.87 168.36,809.51 C168.05,808.69 168.44,807.77 169.22,807.47 C171.42,806.63 176.00,808.74 176.00,810.60 C176.00,811.90 175.36,812.12 173.00,811.65 C171.35,811.32 170.00,811.46 170.00,811.95 C170.00,813.34 172.97,816.00 174.51,816.00 C175.27,816.00 176.47,816.82 177.19,817.81 C179.24,820.64 180.75,821.17 182.93,819.81 C184.57,818.79 185.19,818.80 186.23,819.90 C187.24,820.97 187.24,821.34 186.25,821.71 C184.07,822.51 184.88,823.90 188.75,826.00 C190.81,827.13 194.30,829.14 196.50,830.48 C198.70,831.82 201.43,832.93 202.56,832.96 C203.69,832.98 206.14,834.13 208.01,835.51 C211.66,838.20 216.88,839.99 221.11,839.99 C222.59,840.00 224.86,841.13 226.32,842.60 C229.02,845.29 233.99,847.09 240.00,847.52 C241.93,847.66 244.01,847.83 244.63,847.89 C245.26,847.95 245.98,848.83 246.25,849.84 C246.60,851.20 248.40,852.01 253.08,852.94 C256.57,853.62 260.33,854.82 261.43,855.59 C262.54,856.37 264.50,857.00 265.79,857.00 C267.08,857.00 269.05,857.49 270.17,858.09 C272.03,859.08 275.43,859.76 289.21,861.90 C292.64,862.43 294.06,862.29 294.41,861.37 C294.96,859.94 301.34,858.48 302.89,859.43 C303.45,859.78 303.65,860.75 303.32,861.60 C302.86,862.80 301.85,862.98 298.64,862.44 C295.17,861.85 294.73,861.96 295.72,863.17 C297.44,865.24 303.89,865.35 308.24,863.39 C311.29,862.02 312.51,861.91 314.56,862.84 C315.95,863.48 319.34,864.00 322.08,864.00 C325.59,864.00 327.23,864.44 327.64,865.50 C328.01,866.47 329.55,867.00 331.97,867.00 C334.27,867.00 336.76,867.81 338.40,869.10 C341.19,871.30 347.39,871.93 381.00,873.45 C387.88,873.76 396.55,874.29 400.29,874.61 C404.69,875.00 408.12,874.78 410.04,873.98 C412.38,873.01 413.62,873.02 415.97,873.99 C418.33,874.96 420.70,874.95 427.50,873.94 C434.03,872.97 436.35,872.95 437.23,873.83 C438.87,875.47 447.11,875.23 449.44,873.47 C450.61,872.58 453.60,872.00 456.97,872.00 C461.36,872.00 462.93,872.44 464.30,874.04 C465.98,876.00 466.83,876.06 485.28,875.57 C495.85,875.28 509.84,874.79 516.36,874.46 C525.69,874.00 528.89,874.19 531.36,875.35 C536.31,877.68 543.11,877.89 545.22,875.78 C546.66,874.34 548.57,874.02 555.25,874.12 C565.51,874.27 569.50,875.08 569.50,877.01 C569.50,878.07 571.09,878.69 575.00,879.15 C584.77,880.31 588.00,880.15 588.00,878.50 C588.00,877.37 589.22,877.00 593.00,877.00 C595.75,877.00 598.00,877.45 598.00,878.00 C598.00,878.55 597.23,879.00 596.30,879.00 C595.04,879.00 594.89,879.29 595.72,880.12 C596.34,880.74 600.37,881.33 604.67,881.44 C608.98,881.54 613.48,882.16 614.68,882.81 C615.89,883.47 618.27,884.00 619.98,884.00 C621.69,884.00 626.55,884.72 630.79,885.60 C635.03,886.49 639.40,887.33 640.50,887.47 C646.03,888.19 654.22,889.05 660.50,889.55 C667.83,890.14 669.79,890.38 676.75,891.54 C681.57,892.35 682.37,891.47 678.25,889.90 C675.74,888.94 675.65,888.74 677.22,887.59 C678.50,886.64 680.54,886.55 685.22,887.23 C688.67,887.72 693.58,887.90 696.11,887.63 C701.02,887.10 703.00,888.12 703.00,891.20 C703.00,892.53 703.78,893.00 706.00,893.00 C708.32,893.00 709.00,892.55 709.00,891.04 ZM 115.41 367.62 C114.64,365.61 117.64,359.00 119.33,359.00 C122.28,359.00 123.20,361.59 121.60,365.41 C120.04,369.14 116.48,370.41 115.41,367.62 ZM 362.04 188.54 C360.28,186.42 361.64,185.00 365.44,185.00 C369.32,185.00 371.59,187.01 369.78,188.82 C368.14,190.46 363.49,190.29 362.04,188.54 ZM 956.23 527.83 C954.53,526.13 954.69,523.06 956.51,522.36 C958.63,521.54 961.15,523.92 960.80,526.40 C960.45,528.83 957.99,529.59 956.23,527.83 ZM 601.67 270.33 C600.49,269.16 600.96,266.00 602.31,266.00 C604.46,266.00 607.36,268.61 606.59,269.85 C605.82,271.10 602.74,271.40 601.67,270.33 ZM 84.00 711.61 C84.00,709.66 86.77,708.81 89.07,710.04 C92.07,711.64 91.35,713.00 87.50,713.00 C85.18,713.00 84.00,712.53 84.00,711.61 ZM 697.10 325.08 C695.21,323.89 696.53,320.76 698.75,321.19 C699.71,321.38 700.50,322.38 700.50,323.43 C700.50,325.65 699.09,326.34 697.10,325.08 ZM 928.44 490.90 C927.37,489.17 930.72,486.32 932.15,487.75 C933.04,488.64 933.01,489.28 932.04,490.46 C930.53,492.28 929.38,492.42 928.44,490.90 ZM 213.68 835.94 C211.93,833.90 211.95,833.86 214.70,834.18 C216.30,834.36 217.50,835.11 217.50,835.92 C217.50,838.18 215.61,838.19 213.68,835.94 ZM 498.56 212.47 C496.43,210.86 494.00,210.52 494.00,211.83 C494.00,213.31 495.27,214.00 497.92,213.97 C500.40,213.94 500.43,213.88 498.56,212.47 ZM 610.25 879.28 C608.23,878.56 608.82,876.00 611.00,876.00 C612.10,876.00 613.00,876.65 613.00,877.44 C613.00,879.18 611.94,879.89 610.25,879.28 ZM 902.46 461.93 C901.54,460.44 902.61,459.63 904.52,460.37 C905.40,460.71 905.85,461.44 905.50,461.99 C904.69,463.30 903.29,463.28 902.46,461.93 ZM 920.50 820.99 C920.15,820.44 920.60,819.71 921.48,819.37 C923.39,818.63 924.46,819.44 923.54,820.93 C922.71,822.28 921.31,822.30 920.50,820.99 ZM 103.00 739.42 C103.00,738.55 103.53,738.01 104.19,738.23 C106.04,738.85 106.35,741.00 104.58,741.00 C103.71,741.00 103.00,740.29 103.00,739.42 ZM 91.00 407.58 C91.00,406.71 91.71,406.00 92.58,406.00 C93.45,406.00 93.99,406.53 93.77,407.19 C93.15,409.04 91.00,409.35 91.00,407.58 ZM 76.00 685.00 C76.00,684.45 76.45,684.00 77.00,684.00 C77.55,684.00 78.00,684.45 78.00,685.00 C78.00,685.55 77.55,686.00 77.00,686.00 C76.45,686.00 76.00,685.55 76.00,685.00 ZM 269.15 214.05 C269.58,212.76 270.95,212.53 271.08,213.73 C271.12,214.12 270.61,214.63 269.95,214.85 C269.29,215.07 268.93,214.71 269.15,214.05 Z" fill="rgb(251,183,193)"/>
<path d="M 0.00 512.00 L 0.00 0.00 L 512.00 0.00 L 1024.00 0.00 L 1024.00 512.00 L 1024.00 1024.00 L 512.00 1024.00 L 0.00 1024.00 L 0.00 512.00 ZM 781.50 895.59 C816.76,891.12 850.02,881.47 874.00,868.73 C893.51,858.38 906.35,849.02 921.36,834.22 C946.49,809.44 965.10,776.60 976.54,736.86 C985.80,704.69 991.94,660.00 991.98,624.54 C992.08,532.25 954.35,473.98 848.38,402.73 C820.60,384.05 785.47,362.44 739.50,335.76 C725.75,327.78 707.30,317.07 698.50,311.97 C689.70,306.86 679.12,300.81 675.00,298.52 C670.88,296.24 659.17,289.63 649.00,283.85 C513.48,206.78 438.22,178.05 371.71,178.01 C322.19,177.98 279.31,193.31 233.00,227.62 C206.85,246.99 176.18,276.88 147.46,310.95 C114.35,350.24 98.48,374.95 79.04,417.50 C75.00,426.34 65.22,453.18 62.10,464.00 C52.27,498.07 45.99,539.26 46.01,569.44 C46.06,635.52 62.81,693.41 96.51,744.00 C146.14,818.50 218.91,859.39 326.00,872.95 C362.20,877.54 387.45,878.78 470.00,880.02 C559.78,881.38 583.14,882.87 633.00,890.42 C648.29,892.74 667.12,894.79 693.00,896.95 C709.97,898.37 766.40,897.50 781.50,895.59 Z" fill="rgb(254,254,254)"/>
</g>
</svg>